<svg aria-roledescription="er" viewBox="0 0 471.625 298" style="max-width: 471.625px; background-color: white;" xmlns:xlink="http://www.w3.org/1999/xlink" xmlns="http://www.w3.org/2000/svg" width="100%" id="mermaid-0"><style>#mermaid-0{font-family:"trebuchet ms",verdana,arial,sans-serif;font-size:16px;fill:#000000;}#mermaid-0 .error-icon{fill:#552222;}#mermaid-0 .error-text{fill:#552222;stroke:#552222;}#mermaid-0 .edge-thickness-normal{stroke-width:2px;}#mermaid-0 .edge-thickness-thick{stroke-width:3.5px;}#mermaid-0 .edge-pattern-solid{stroke-dasharray:0;}#mermaid-0 .edge-pattern-dashed{stroke-dasharray:3;}#mermaid-0 .edge-pattern-dotted{stroke-dasharray:2;}#mermaid-0 .marker{fill:#000000;stroke:#000000;}#mermaid-0 .marker.cross{stroke:#000000;}#mermaid-0 svg{font-family:"trebuchet ms",verdana,arial,sans-serif;font-size:16px;}#mermaid-0 .entityBox{fill:#cde498;stroke:#13540c;}#mermaid-0 .attributeBoxOdd{fill:#ffffff;stroke:#13540c;}#mermaid-0 .attributeBoxEven{fill:#f2f2f2;stroke:#13540c;}#mermaid-0 .relationshipLabelBox{fill:hsl(78.1578947368, 58.4615384615%, 84.5098039216%);opacity:0.7;background-color:hsl(78.1578947368, 58.4615384615%, 84.5098039216%);}#mermaid-0 .relationshipLabelBox rect{opacity:0.5;}#mermaid-0 .relationshipLine{stroke:#000000;}#mermaid-0 .entityTitleText{text-anchor:middle;font-size:18px;fill:#000000;}#mermaid-0 :root{--mermaid-font-family:"trebuchet ms",verdana,arial,sans-serif;}</style><g/><defs><marker orient="auto" markerHeight="18" markerWidth="18" refY="9" refX="0" id="ONLY_ONE_START"><path d="M9,0 L9,18 M15,0 L15,18" fill="none" stroke="gray"/></marker></defs><defs><marker orient="auto" markerHeight="18" markerWidth="18" refY="9" refX="18" id="ONLY_ONE_END"><path d="M3,0 L3,18 M9,0 L9,18" fill="none" stroke="gray"/></marker></defs><defs><marker orient="auto" markerHeight="18" markerWidth="30" refY="9" refX="0" id="ZERO_OR_ONE_START"><circle r="6" cy="9" cx="21" fill="white" stroke="gray"/><path d="M9,0 L9,18" fill="none" stroke="gray"/></marker></defs><defs><marker orient="auto" markerHeight="18" markerWidth="30" refY="9" refX="30" id="ZERO_OR_ONE_END"><circle r="6" cy="9" cx="9" fill="white" stroke="gray"/><path d="M21,0 L21,18" fill="none" stroke="gray"/></marker></defs><defs><marker orient="auto" markerHeight="36" markerWidth="45" refY="18" refX="18" id="ONE_OR_MORE_START"><path d="M0,18 Q 18,0 36,18 Q 18,36 0,18 M42,9 L42,27" fill="none" stroke="gray"/></marker></defs><defs><marker orient="auto" markerHeight="36" markerWidth="45" refY="18" refX="27" id="ONE_OR_MORE_END"><path d="M3,9 L3,27 M9,18 Q27,0 45,18 Q27,36 9,18" fill="none" stroke="gray"/></marker></defs><defs><marker orient="auto" markerHeight="36" markerWidth="57" refY="18" refX="18" id="ZERO_OR_MORE_START"><circle r="6" cy="18" cx="48" fill="white" stroke="gray"/><path d="M0,18 Q18,0 36,18 Q18,36 0,18" fill="none" stroke="gray"/></marker></defs><defs><marker orient="auto" markerHeight="36" markerWidth="57" refY="18" refX="39" id="ZERO_OR_MORE_END"><circle r="6" cy="18" cx="9" fill="white" stroke="gray"/><path d="M21,18 Q39,0 57,18 Q39,36 21,18" fill="none" stroke="gray"/></marker></defs><path style="stroke: gray; fill: none;" marker-start="url(#ZERO_OR_MORE_START)" marker-end="url(#ONLY_ONE_END)" d="M97.12927827380952,88L87.2086433531746,96.33333333333333C77.28800843253968,104.66666666666667,57.44673859126984,121.33333333333333,51.91206858291562,138C46.377398574561404,154.66666666666666,55.1493283991228,171.33333333333334,59.53529331140351,179.66666666666666L63.921258223684205,188" class="er relationshipLine"/><path style="stroke: gray; fill: none;" marker-start="url(#ZERO_OR_MORE_START)" marker-end="url(#ZERO_OR_ONE_END)" d="M198.68359375,86.98568486614094L214.42708333333334,95.48807072178413C230.17057291666666,103.99045657742731,261.6575520833333,120.99522828871365,288.69557291666666,139.66428081102347C315.73359375,158.33333333333334,338.32265624999997,178.66666666666666,349.6171875,188.83333333333334L360.91171875,199" class="er relationshipLine"/><path style="stroke: gray; fill: none;" marker-start="url(#ZERO_OR_MORE_START)" marker-end="url(#ONLY_ONE_END)" d="M376.0645461309524,77L388.167720734127,87.16666666666667C400.2708953373016,97.33333333333333,424.4772445436508,117.66666666666667,431.22954195384295,138C437.98183936403507,158.33333333333334,427.28008497807014,178.66666666666666,421.9292077850877,188.83333333333334L416.57833059210526,199" class="er relationshipLine"/><path style="stroke: gray; fill: none;" marker-start="url(#ZERO_OR_MORE_START)" marker-end="url(#ONLY_ONE_END)" d="M306.09551711309524,77L287.27035280257934,87.16666666666667C268.4451884920635,97.33333333333333,230.79485987103172,117.66666666666667,202.71188306051587,136.16666666666666C174.62890625,154.66666666666666,156.11328125,171.33333333333334,146.85546875,179.66666666666666L137.59765625,188" class="er relationshipLine"/><g transform="translate(20,188 )" id="entity-habits-1f0ad0a9-0b78-4b21-ae84-fa638de9f0e3"><rect height="90" width="135.2109375" y="0" x="0" class="er entityBox"/><text style="dominant-baseline: middle; text-anchor: middle; font-size: 12px;" transform="translate(67.60546875,12)" y="0" x="0" id="text-entity-habits-1f0ad0a9-0b78-4b21-ae84-fa638de9f0e3" class="er entityLabel">habits</text><rect height="22" width="53.6640625" y="24" x="0" class="er attributeBoxOdd"/><text style="dominant-baseline: middle; font-size: 10.2px;" transform="translate(5,35)" y="0" x="0" id="text-entity-habits-1f0ad0a9-0b78-4b21-ae84-fa638de9f0e3-attr-1-type" class="er entityLabel">String</text><rect height="22" width="59.984375" y="24" x="53.6640625" class="er attributeBoxOdd"/><text style="dominant-baseline: middle; font-size: 10.2px;" transform="translate(58.6640625,35)" y="0" x="0" id="text-entity-habits-1f0ad0a9-0b78-4b21-ae84-fa638de9f0e3-attr-1-name" class="er entityLabel">id</text><rect height="22" width="21.5625" y="24" x="113.6484375" class="er attributeBoxOdd"/><text style="dominant-baseline: middle; font-size: 10.2px;" transform="translate(118.6484375,35)" y="0" x="0" id="text-entity-habits-1f0ad0a9-0b78-4b21-ae84-fa638de9f0e3-attr-1-key" class="er entityLabel">PK</text><rect height="22" width="53.6640625" y="46" x="0" class="er attributeBoxEven"/><text style="dominant-baseline: middle; font-size: 10.2px;" transform="translate(5,57)" y="0" x="0" id="text-entity-habits-1f0ad0a9-0b78-4b21-ae84-fa638de9f0e3-attr-2-type" class="er entityLabel">String</text><rect height="22" width="59.984375" y="46" x="53.6640625" class="er attributeBoxEven"/><text style="dominant-baseline: middle; font-size: 10.2px;" transform="translate(58.6640625,57)" y="0" x="0" id="text-entity-habits-1f0ad0a9-0b78-4b21-ae84-fa638de9f0e3-attr-2-name" class="er entityLabel">title</text><rect height="22" width="21.5625" y="46" x="113.6484375" class="er attributeBoxEven"/><text style="dominant-baseline: middle; font-size: 10.2px;" transform="translate(118.6484375,57)" y="0" x="0" id="text-entity-habits-1f0ad0a9-0b78-4b21-ae84-fa638de9f0e3-attr-2-key" class="er entityLabel"/><rect height="22" width="53.6640625" y="68" x="0" class="er attributeBoxOdd"/><text style="dominant-baseline: middle; font-size: 10.2px;" transform="translate(5,79)" y="0" x="0" id="text-entity-habits-1f0ad0a9-0b78-4b21-ae84-fa638de9f0e3-attr-3-type" class="er entityLabel">DateTime</text><rect height="22" width="59.984375" y="68" x="53.6640625" class="er attributeBoxOdd"/><text style="dominant-baseline: middle; font-size: 10.2px;" transform="translate(58.6640625,79)" y="0" x="0" id="text-entity-habits-1f0ad0a9-0b78-4b21-ae84-fa638de9f0e3-attr-3-name" class="er entityLabel">created_at</text><rect height="22" width="21.5625" y="68" x="113.6484375" class="er attributeBoxOdd"/><text style="dominant-baseline: middle; font-size: 10.2px;" transform="translate(118.6484375,79)" y="0" x="0" id="text-entity-habits-1f0ad0a9-0b78-4b21-ae84-fa638de9f0e3-attr-3-key" class="er entityLabel"/></g><g transform="translate(76.52734375,20 )" id="entity-habitweekdays-5f2a4a34-eaf8-4aae-afda-f68e8509cba8"><rect height="68" width="122.15625" y="0" x="0" class="er entityBox"/><text style="dominant-baseline: middle; text-anchor: middle; font-size: 12px;" transform="translate(61.078125,12)" y="0" x="0" id="text-entity-habitweekdays-5f2a4a34-eaf8-4aae-afda-f68e8509cba8" class="er entityLabel">habit_week_days</text><rect height="22" width="39.450520833333336" y="24" x="0" class="er attributeBoxOdd"/><text style="dominant-baseline: middle; font-size: 10.2px;" transform="translate(5,35)" y="0" x="0" id="text-entity-habitweekdays-5f2a4a34-eaf8-4aae-afda-f68e8509cba8-attr-1-type" class="er entityLabel">String</text><rect height="22" width="58.216145833333336" y="24" x="39.450520833333336" class="er attributeBoxOdd"/><text style="dominant-baseline: middle; font-size: 10.2px;" transform="translate(44.450520833333336,35)" y="0" x="0" id="text-entity-habitweekdays-5f2a4a34-eaf8-4aae-afda-f68e8509cba8-attr-1-name" class="er entityLabel">id</text><rect height="22" width="24.489583333333332" y="24" x="97.66666666666667" class="er attributeBoxOdd"/><text style="dominant-baseline: middle; font-size: 10.2px;" transform="translate(102.66666666666667,35)" y="0" x="0" id="text-entity-habitweekdays-5f2a4a34-eaf8-4aae-afda-f68e8509cba8-attr-1-key" class="er entityLabel">PK</text><rect height="22" width="39.450520833333336" y="46" x="0" class="er attributeBoxEven"/><text style="dominant-baseline: middle; font-size: 10.2px;" transform="translate(5,57)" y="0" x="0" id="text-entity-habitweekdays-5f2a4a34-eaf8-4aae-afda-f68e8509cba8-attr-2-type" class="er entityLabel">Int</text><rect height="22" width="58.216145833333336" y="46" x="39.450520833333336" class="er attributeBoxEven"/><text style="dominant-baseline: middle; font-size: 10.2px;" transform="translate(44.450520833333336,57)" y="0" x="0" id="text-entity-habitweekdays-5f2a4a34-eaf8-4aae-afda-f68e8509cba8-attr-2-name" class="er entityLabel">week_day</text><rect height="22" width="24.489583333333332" y="46" x="97.66666666666667" class="er attributeBoxEven"/><text style="dominant-baseline: middle; font-size: 10.2px;" transform="translate(102.66666666666667,57)" y="0" x="0" id="text-entity-habitweekdays-5f2a4a34-eaf8-4aae-afda-f68e8509cba8-attr-2-key" class="er entityLabel"/></g><g transform="translate(345.7421875,199 )" id="entity-days-ec0e50e4-9154-4199-aef3-555d557abd83"><rect height="68" width="105.8828125" y="0" x="0" class="er entityBox"/><text style="dominant-baseline: middle; text-anchor: middle; font-size: 12px;" transform="translate(52.94140625,12)" y="0" x="0" id="text-entity-days-ec0e50e4-9154-4199-aef3-555d557abd83" class="er entityLabel">days</text><rect height="22" width="53.6640625" y="24" x="0" class="er attributeBoxOdd"/><text style="dominant-baseline: middle; font-size: 10.2px;" transform="translate(5,35)" y="0" x="0" id="text-entity-days-ec0e50e4-9154-4199-aef3-555d557abd83-attr-1-type" class="er entityLabel">String</text><rect height="22" width="30.65625" y="24" x="53.6640625" class="er attributeBoxOdd"/><text style="dominant-baseline: middle; font-size: 10.2px;" transform="translate(58.6640625,35)" y="0" x="0" id="text-entity-days-ec0e50e4-9154-4199-aef3-555d557abd83-attr-1-name" class="er entityLabel">id</text><rect height="22" width="21.5625" y="24" x="84.3203125" class="er attributeBoxOdd"/><text style="dominant-baseline: middle; font-size: 10.2px;" transform="translate(89.3203125,35)" y="0" x="0" id="text-entity-days-ec0e50e4-9154-4199-aef3-555d557abd83-attr-1-key" class="er entityLabel">PK</text><rect height="22" width="53.6640625" y="46" x="0" class="er attributeBoxEven"/><text style="dominant-baseline: middle; font-size: 10.2px;" transform="translate(5,57)" y="0" x="0" id="text-entity-days-ec0e50e4-9154-4199-aef3-555d557abd83-attr-2-type" class="er entityLabel">DateTime</text><rect height="22" width="30.65625" y="46" x="53.6640625" class="er attributeBoxEven"/><text style="dominant-baseline: middle; font-size: 10.2px;" transform="translate(58.6640625,57)" y="0" x="0" id="text-entity-days-ec0e50e4-9154-4199-aef3-555d557abd83-attr-2-name" class="er entityLabel">date</text><rect height="22" width="21.5625" y="46" x="84.3203125" class="er attributeBoxEven"/><text style="dominant-baseline: middle; font-size: 10.2px;" transform="translate(89.3203125,57)" y="0" x="0" id="text-entity-days-ec0e50e4-9154-4199-aef3-555d557abd83-attr-2-key" class="er entityLabel"/></g><g transform="translate(298.68359375,31 )" id="entity-dayhabits-d97c2853-4e5f-4f40-b5d4-443d7167632a"><rect height="46" width="100" y="0" x="0" class="er entityBox"/><text style="dominant-baseline: middle; text-anchor: middle; font-size: 12px;" transform="translate(50,12)" y="0" x="0" id="text-entity-dayhabits-d97c2853-4e5f-4f40-b5d4-443d7167632a" class="er entityLabel">day_habits</text><rect height="22" width="44.296875" y="24" x="0" class="er attributeBoxOdd"/><text style="dominant-baseline: middle; font-size: 10.2px;" transform="translate(5,35)" y="0" x="0" id="text-entity-dayhabits-d97c2853-4e5f-4f40-b5d4-443d7167632a-attr-1-type" class="er entityLabel">String</text><rect height="22" width="26.3671875" y="24" x="44.296875" class="er attributeBoxOdd"/><text style="dominant-baseline: middle; font-size: 10.2px;" transform="translate(49.296875,35)" y="0" x="0" id="text-entity-dayhabits-d97c2853-4e5f-4f40-b5d4-443d7167632a-attr-1-name" class="er entityLabel">id</text><rect height="22" width="29.3359375" y="24" x="70.6640625" class="er attributeBoxOdd"/><text style="dominant-baseline: middle; font-size: 10.2px;" transform="translate(75.6640625,35)" y="0" x="0" id="text-entity-dayhabits-d97c2853-4e5f-4f40-b5d4-443d7167632a-attr-1-key" class="er entityLabel">PK</text></g><rect height="14" width="27.7265625" y="124.0775146484375" x="41.11825942993164" class="er relationshipLabelBox"/><text style="text-anchor: middle; dominant-baseline: middle; font-size: 12px;" y="131.0775146484375" x="54.98154067993164" id="rel1" class="er relationshipLabel">habit</text><rect height="14" width="19.5859375" y="129.62173461914062" x="274.43646240234375" class="er relationshipLabelBox"/><text style="text-anchor: middle; dominant-baseline: middle; font-size: 12px;" y="136.62173461914062" x="284.22943115234375" id="rel2" class="er relationshipLabel">Day</text><rect height="14" width="18.9140625" y="122.55453491210938" x="418.0277404785156" class="er relationshipLabelBox"/><text style="text-anchor: middle; dominant-baseline: middle; font-size: 12px;" y="129.55453491210938" x="427.4847717285156" id="rel3" class="er relationshipLabel">day</text><rect height="13.999992370605469" width="27.7265625" y="119.56418991088867" x="203.97079467773438" class="er relationshipLabelBox"/><text style="text-anchor: middle; dominant-baseline: middle; font-size: 12px;" y="126.5641860961914" x="217.83407592773438" id="rel4" class="er relationshipLabel">habit</text></svg>